<svg id="Calque_1" data-name="Calque 1" xmlns="http://www.w3.org/2000/svg" viewBox="0 0 210 41.6"><defs><style>.cls-1,.cls-3{fill:#b8bbdf;}.cls-2,.cls-3{opacity:0.69;}</style></defs><path class="cls-1" d="M113.69,18.11a1.54,1.54,0,1,1,0-3.07,1.52,1.52,0,0,1,1.54,1.54h0A1.54,1.54,0,0,1,113.69,18.11Zm0-2.48a1,1,0,1,0,0,1.93,1,1,0,1,0,0-1.93Z"/><g class="cls-2"><path class="cls-1" d="M172.69,31.49c0-1.58-.08-4.14-.16-6.39v0c-.08-2.37-.15-4.77-.15-6.23,0-2,.47-3.16,3-3.16h.4V14.29H164.65v1.38H165c2,0,3,.52,3,3.24v12c0,2.28-.63,3.43-4.1,3.47h-4.81c-8.72-9.39-20.35-12.82-26.19-12.82-2.05,0-3.31.43-3.82,1.38-.83,1.54.82,3.9,2.36,6.19l.12.16c1.18,1.73,2.56,3.71,2.13,4.53-.24.4-.91.63-2.05.63a13.79,13.79,0,0,1-6.43-2.4,11.63,11.63,0,0,1-5.36-8.16l0-.24-.16.16a1,1,0,0,1-.24.19c-.07.08-.19.16-.27.24l0,0v0c1,6.39,6.86,9.7,10.61,10.65-9.74-.48-14.79-3.47-15-8.88v-.11l-.12,0a3.32,3.32,0,0,1-.55,0h-.12v.12c.24,6.39,6.47,9.66,18.46,9.66h.24c5.87,0,8.71-.71,9.22-2.32.67-2.05-3.23-4.69-6.62-7.06l0,0c-1.22-.83-4-2.76-3.91-3.12,0,0,.16-.15,1.11-.15,5.64,0,15.14,6.62,15.14,9.74a1.1,1.1,0,0,1-.71,1,6.26,6.26,0,0,1-2.8.51h-.39v1.39l16.48,0h17V34.33h-2C173.56,34.29,172.69,33.26,172.69,31.49Zm-38.21,2.68c.67-1.3-.75-3.35-2.25-5.52l0-.08c-1.3-1.89-2.88-4.22-2.29-5.29a1.83,1.83,0,0,1,1.19-.75.88.88,0,0,0-.48.52c-.23.9,1.11,1.89,4.22,4,2.72,1.85,6.79,4.69,6.35,6.19-.19.63-1.42,1.66-7.69,1.74A1.74,1.74,0,0,0,134.48,34.17Zm12.78.51a2,2,0,0,0,1.14-1.77c0-3.63-9.54-10.06-15.34-10.53,5.68,0,17,3.43,25.47,12.62H146.35A6.51,6.51,0,0,0,147.26,34.68Zm-2.45.43Zm22-20h6.75c-1.78.59-2,2.21-2,3.75s.08,4,.15,6.15v.12c.08,2.13.16,4.77.16,6.39a3.26,3.26,0,0,0,1.9,3.35h-7.42c1.78-.48,2.57-1.78,2.57-4V18.91C168.91,17.76,168.91,15.79,166.85,15.12Z"/><path class="cls-1" d="M201.16,34.4c-4.77,0-11-2.09-16.8-5.63-5-3-8.67-6.63-9.07-8.88l7.46,0c.11,5.92,2.8,9.07,7.8,9.07,5.29,0,11-3.66,11-9.62,0-7.57-11.2-12.66-27.88-12.66H160.15l0,21.22V28h1.34l0-6.27c0-11.36,8.52-13,17.75-13s16.56,6.12,16.56,13.92v1.78c-7.85-.12-11.63-3.31-11.63-9.74v-.4h-.4c-6.23,0-11.28,3.95-11.28,8.84,0,3.35,2.33,6.39,6.59,8.59,5.09,2.65,12.54,4,22.08,4h.4V34.48l-.4-.08Zm-27.8-11.31a6.83,6.83,0,0,1,1.11-3.63v0c0,2.48,3.66,6.35,9.3,9.82a41.69,41.69,0,0,0,13.13,5.4c-7.33-.32-13.33-1.62-17.47-3.79h0C175.53,28.88,173.36,26.08,173.36,23.09Zm5.92-15.15c-5.49,0-9.39.67-12.27,2.09a10.75,10.75,0,0,0-6,8.13V7.51h12.66c16.16,0,27,4.77,27,11.83,0,5.44-5.29,8.79-10.18,8.79-4.65,0-7-2.91-7-8.67V19l-8.83.08a8.88,8.88,0,0,1,1.58-1.61,11.66,11.66,0,0,1,7.1-2.41c.15,6.86,4.37,10.18,12.89,10.18h.4V22.69C196.67,14.41,189,7.94,179.28,7.94Z"/><rect class="cls-1" x="39.09" y="6.45" width="9.42" height="29.3"/><polygon class="cls-1" points="21.74 26.6 37.63 16.23 37.63 6.41 5.61 6.45 5.61 15.55 21.62 15.55 5.72 25.89 5.65 25.93 5.65 35.74 37.47 35.71 37.67 35.71 37.63 26.6 21.74 26.6"/><path class="cls-1" d="M123,14.88a1.42,1.42,0,0,1,.08.4v.2l.16-.08c9.86-5.33,25.79-7.77,34.07-7.85v9.9c-.95-6.15-4.1-8.6-10.76-8.6h-.16c-5.72,0-8.76,2-8.76,5.84v5.75h-3.11V14.25h-.4c-4.06,0-8.24.16-11,1.23l-.08,0v.39c0,.12,0,.24,0,.35v.16l.16-.08c2.09-.86,5.28-1.26,10.45-1.26v6.15h12.66c3.15,0,4.18.95,4.18,3.91v.35h1.34V12.28h-1.3v.44c0,3.74-5.44,6.86-12.11,7V14.65c0-4.14,4.3-5,7.93-5,7.65,0,10.37,3.19,10.37,12.15v6.27h1.34l0-21.26V6.68h-.39A96.52,96.52,0,0,0,131.44,11,50.33,50.33,0,0,0,123,14.49l-.08,0v.08A1.83,1.83,0,0,0,123,14.88Zm24.26,3.47A8.16,8.16,0,0,0,151,14.41l0,8.56c-.55-1.78-2-2.53-4.69-2.53H140.2A17.07,17.07,0,0,0,147.26,18.35Z"/><path class="cls-1" d="M201.52,9a.83.83,0,0,0,.63-.87c0-.67-.4-1-1.18-1H200a.35.35,0,0,0-.36.35v.16h.08V10a.36.36,0,0,0,.36.36h0a.36.36,0,0,0,.35-.36V9.21s0,0,0,0h.2l.71,1.14a.36.36,0,0,0,.27.12.27.27,0,0,0,.28-.16.35.35,0,0,0,0-.39l-.47-.75v0S201.52,9.05,201.52,9Zm-1.07-1.18s0,0,0,0h.4c.51,0,.51.23.51.31,0,.32-.2.32-.63.32h-.28s0,0,0,0Z"/><path class="cls-1" d="M200.85,6.05a2.69,2.69,0,0,0-2.72,2.68,2.72,2.72,0,0,0,2.72,2.72,2.66,2.66,0,0,0,2.68-2.72A2.71,2.71,0,0,0,200.85,6.05Zm0,4.69a1.84,1.84,0,0,1-1.42-.59,1.87,1.87,0,0,1-.52-1.46,1.94,1.94,0,1,1,3.87,0A2,2,0,0,1,200.85,10.74Z"/><path class="cls-1" d="M111.73,25.81h-.08l0,.08A11.78,11.78,0,0,1,101.79,32C93.55,32,90,27,90,15.16v-.39h-.79c-2,.07-4.3.94-4.3,4.61v.12c0,1.5.08,3.74.16,5.95s.16,4.62.16,6.15a3.43,3.43,0,0,0,2,3.44H79.59c1.61-.4,2.6-1.5,2.6-4.07V18.87c0-1.9-.28-4-3.43-4.1v-.12H90.31c.2,9.23,6.78,14.51,18.06,14.51h.4V24.7l0,0a3.54,3.54,0,0,1-.59-.39l-.2-.16v4.14c-10.69-.08-16.84-5.2-16.84-14v-.39h-7a11.44,11.44,0,0,0-2.84-3.63,32,32,0,0,1,7.42-1.42c1.26-.12,2.64-.16,4.37-.16,3.83,0,7.93,2.17,11,5.76l.15.2,0-.24a.71.71,0,0,1,.08-.31,1.17,1.17,0,0,0,.08-.36v0l0,0C101.2,10,96.94,7.83,93,7.83c-1.46,0-3,.07-4.57.19a32.38,32.38,0,0,0-7.93,1.62,17.76,17.76,0,0,0-5.08-2.37h9.82c.94,0,1.89,0,2.79,0,7.3.24,13.37,1.46,17.59,3.59l.08,0,.47-.67-.11-.08C101.63,8,95.28,6.72,87.75,6.48c-.83,0-1.7,0-2.52,0H70.48c-.79,0-1.66-.08-2.72-.08H50.17l0,29.34H60.58V24.47a10,10,0,0,0,3,5.28,11.47,11.47,0,0,0,7.81,3.08,14.18,14.18,0,0,0,9.9-3.75v2c0,2.33-.63,3.51-4.14,3.51H73.83l.08,1.38,21.29-.08V34.48H88.34c-1.58,0-2.44-1-2.44-2.84,0-1.53-.08-3.7-.16-6.19-.08-2.21-.16-4.45-.16-5.95,0-2.41,1.18-3.71,3.47-3.87.12,12,3.86,17.2,12.62,17.2a12.53,12.53,0,0,0,10.61-6.67l0-.08,0,0A1.07,1.07,0,0,0,111.73,25.81ZM72,16.93h.16a3.42,3.42,0,0,1,.63.16l.44.12a2.11,2.11,0,0,1,1.65,2.17,2.91,2.91,0,0,1-.82,2.09,5.88,5.88,0,0,1-4.18,1.42,10.82,10.82,0,0,1-6.51-2.33,6.82,6.82,0,0,1-2.8-3.82H69a18,18,0,0,1,2.68.16h.2Z"/></g><path class="cls-3" d="M113.69,26.32a9.71,9.71,0,0,1,0-19.41h0a9.71,9.71,0,0,1,0,19.41Zm0-18.54h0a8.86,8.86,0,1,0,8.87,8.83h0a8.84,8.84,0,0,0-8.87-8.83Z"/></svg>