<?xml version="1.0" encoding="utf-8"?>
<!-- Generator: Adobe Illustrator 24.3.0, SVG Export Plug-In . SVG Version: 6.00 Build 0)  -->
<svg version="1.1" id="Calque_1" xmlns="http://www.w3.org/2000/svg" xmlns:xlink="http://www.w3.org/1999/xlink" x="0px" y="0px"
	 viewBox="0 0 210 41.6" style="enable-background:new 0 0 210 41.6;" xml:space="preserve">
<style type="text/css">
	.st0{fill:#FFFFFF;}
	.st1{fill:#FFFFFF;enable-background:new    ;}
</style>
<path class="st0" d="M113.7,18.1c-0.8,0.1-1.6-0.6-1.7-1.4s0.6-1.6,1.4-1.7c0.1,0,0.2,0,0.2,0c0.8,0,1.5,0.7,1.5,1.5c0,0,0,0,0,0
	l0,0C115.2,17.4,114.5,18.1,113.7,18.1z M113.7,15.6c-0.5-0.1-1.1,0.2-1.2,0.7c-0.1,0.5,0.2,1.1,0.7,1.2c0.2,0,0.4,0,0.5,0
	c0.5,0.1,1.1-0.2,1.2-0.7s-0.2-1.1-0.7-1.2C114,15.6,113.9,15.6,113.7,15.6z"/>
<g>
	<path class="st0" d="M172.7,31.5c0-1.6-0.1-4.1-0.2-6.4l0,0c-0.1-2.4-0.1-4.8-0.1-6.2c0-2,0.5-3.2,3-3.2h0.4v-1.4h-11.1v1.4h0.4
		c2,0,3,0.5,3,3.2v12c0,2.3-0.6,3.4-4.1,3.5h-4.8c-8.7-9.4-20.4-12.8-26.2-12.8c-2.1,0-3.3,0.4-3.8,1.4c-0.8,1.5,0.8,3.9,2.4,6.2
		l0.1,0.2c1.2,1.7,2.6,3.7,2.1,4.5c-0.2,0.4-0.9,0.6-2.1,0.6c-2.3-0.2-4.5-1.1-6.4-2.4c-2.9-1.8-4.9-4.8-5.4-8.2v-0.2l-0.2,0.2
		c-0.1,0.1-0.2,0.1-0.2,0.2c-0.1,0.1-0.2,0.2-0.3,0.2l0,0l0,0c1,6.4,6.9,9.7,10.6,10.6c-9.7-0.5-14.8-3.5-15-8.9v-0.1h-0.1
		c-0.2,0-0.4,0-0.6,0H114V26c0.2,6.4,6.5,9.7,18.5,9.7h0.2c5.9,0,8.7-0.7,9.2-2.3c0.7-2-3.2-4.7-6.6-7.1l0,0c-1.2-0.8-4-2.8-3.9-3.1
		c0,0,0.2-0.1,1.1-0.1c5.6,0,15.1,6.6,15.1,9.7c0,0.4-0.3,0.8-0.7,1c-0.9,0.4-1.8,0.6-2.8,0.5h-0.4v1.4h16.5h17v-1.3h-2
		C173.6,34.3,172.7,33.3,172.7,31.5z M134.5,34.2c0.7-1.3-0.8-3.3-2.2-5.5v-0.1c-1.3-1.9-2.9-4.2-2.3-5.3c0.3-0.4,0.7-0.7,1.2-0.8
		c-0.2,0.1-0.4,0.3-0.5,0.5c-0.2,0.9,1.1,1.9,4.2,4c2.7,1.9,6.8,4.7,6.4,6.2c-0.2,0.6-1.4,1.7-7.7,1.7
		C133.9,34.8,134.3,34.5,134.5,34.2L134.5,34.2z M147.3,34.7c0.7-0.3,1.1-1,1.1-1.8c0-3.6-9.5-10.1-15.3-10.5
		c5.7,0,17,3.4,25.5,12.6h-12.2C146.7,34.9,147,34.8,147.3,34.7L147.3,34.7z M166.8,15.1h6.8c-1.8,0.6-2,2.2-2,3.8s0.1,4,0.1,6.1
		v0.1c0.1,2.1,0.2,4.8,0.2,6.4c-0.2,1.4,0.6,2.8,1.9,3.3h-7.4c1.8-0.5,2.6-1.8,2.6-4v-12C168.9,17.8,168.9,15.8,166.8,15.1
		L166.8,15.1z"/>
	<path class="st0" d="M201.2,34.4c-4.8,0-11-2.1-16.8-5.6c-5-3-8.7-6.6-9.1-8.9h7.5c0.1,5.9,2.8,9.1,7.8,9.1c5.3,0,11-3.7,11-9.6
		c0-7.6-11.2-12.7-27.9-12.7h-13.5v21.2V28h1.3v-6.3c0-11.4,8.5-13,17.8-13s16.6,6.1,16.6,13.9v1.8c-7.9-0.1-11.6-3.3-11.6-9.7v-0.4
		h-0.4c-6.2,0-11.3,4-11.3,8.8c0,3.4,2.3,6.4,6.6,8.6c5.1,2.6,12.5,4,22.1,4h0.4v-1.2L201.2,34.4L201.2,34.4z M173.4,23.1
		c0-1.3,0.4-2.5,1.1-3.6l0,0c0,2.5,3.7,6.4,9.3,9.8c4,2.5,8.5,4.4,13.1,5.4c-7.3-0.3-13.3-1.6-17.5-3.8l0,0
		C175.5,28.9,173.4,26.1,173.4,23.1z M179.3,7.9c-5.5,0-9.4,0.7-12.3,2.1c-3.2,1.5-5.5,4.6-6,8.1V7.5h12.7c16.2,0,27,4.8,27,11.8
		c0,5.4-5.3,8.8-10.2,8.8c-4.6,0-7-2.9-7-8.7V19l-8.8,0.1c0.5-0.6,1-1.1,1.6-1.6c2-1.6,4.5-2.4,7.1-2.4c0.1,6.9,4.4,10.2,12.9,10.2
		h0.4v-2.5C196.7,14.4,189,7.9,179.3,7.9z"/>
	<rect x="39.1" y="6.4" class="st0" width="9.4" height="29.3"/>
	<polygon class="st0" points="21.7,26.6 37.6,16.2 37.6,6.4 5.6,6.4 5.6,15.5 21.6,15.5 5.7,25.9 5.7,25.9 5.7,35.7 37.5,35.7 
		37.7,35.7 37.6,26.6 	"/>
	<path class="st0" d="M123,14.9c0,0.1,0.1,0.3,0.1,0.4v0.2l0.2-0.1c9.9-5.3,25.8-7.8,34.1-7.8v9.9c-0.9-6.2-4.1-8.6-10.8-8.6h-0.2
		c-5.7,0-8.8,2-8.8,5.8v5.8h-3.1v-6.2h-0.4c-4.1,0-8.2,0.2-11,1.2H123v0.4c0,0.1,0,0.2,0,0.4v0.2l0.2-0.1c2.1-0.9,5.3-1.3,10.4-1.3
		v6.2h12.7c3.1,0,4.2,1,4.2,3.9v0.4h1.3V12.3h-1.3v0.4c0,3.7-5.4,6.9-12.1,7v-5.1c0-4.1,4.3-5,7.9-5c7.6,0,10.4,3.2,10.4,12.2v6.3
		h1.3V6.8V6.7h-0.4c-8.9,0.2-17.7,1.7-26.2,4.3c-2.9,0.9-5.7,2.1-8.4,3.5h-0.1v0.1C122.9,14.7,123,14.8,123,14.9z M147.3,18.3
		c1.7-0.8,3-2.2,3.7-3.9V23c-0.6-1.8-2-2.5-4.7-2.5h-6.1C142.7,20.3,145.1,19.6,147.3,18.3z"/>
	<path class="st0" d="M201.5,9c0.4-0.1,0.7-0.5,0.6-0.9c0-0.7-0.4-1-1.2-1h-1c-0.2,0-0.4,0.1-0.4,0.3c0,0,0,0,0,0v0.2h0.1V10
		c0,0.2,0.2,0.4,0.4,0.4l0,0l0,0c0.2,0,0.4-0.2,0.4-0.4V9.2l0,0h0.2l0.7,1.1c0.1,0.1,0.2,0.1,0.3,0.1c0.1,0,0.2-0.1,0.3-0.2
		c0.1-0.1,0.1-0.3,0-0.4l-0.5-0.8l0,0C201.4,9.2,201.5,9,201.5,9z M200.4,7.8L200.4,7.8h0.4c0.5,0,0.5,0.2,0.5,0.3
		c0,0.3-0.2,0.3-0.6,0.3h-0.3l0,0L200.4,7.8z"/>
	<path class="st0" d="M200.9,6c-1.5,0-2.7,1.2-2.7,2.7c0,0,0,0,0,0c0,1.5,1.2,2.7,2.7,2.7l0,0c1.5,0,2.7-1.2,2.7-2.6
		c0,0,0-0.1,0-0.1C203.5,7.3,202.3,6.1,200.9,6z M200.9,10.7c-0.5,0-1.1-0.2-1.4-0.6c-0.4-0.4-0.6-0.9-0.5-1.5
		c-0.1-1.1,0.7-2,1.8-2.1c1.1-0.1,2,0.7,2.1,1.8c0,0.1,0,0.2,0,0.3C202.8,9.8,201.9,10.7,200.9,10.7z"/>
	<path class="st0" d="M111.7,25.8L111.7,25.8L111.7,25.8c-2.1,3.7-5.8,6-9.9,6.2C93.6,32,90,27,90,15.2v-0.4h-0.8
		c-2,0.1-4.3,0.9-4.3,4.6v0.1c0,1.5,0.1,3.7,0.2,6s0.2,4.6,0.2,6.1c-0.1,1.5,0.7,2.8,2,3.4h-7.6c1.6-0.4,2.6-1.5,2.6-4.1V18.9
		c0-1.9-0.3-4-3.4-4.1v-0.1h11.6c0.2,9.2,6.8,14.5,18.1,14.5h0.4v-4.5l0,0c-0.2-0.1-0.4-0.2-0.6-0.4l-0.2-0.2v4.1
		c-10.7-0.1-16.8-5.2-16.8-14v-0.4h-7c-0.7-1.4-1.7-2.6-2.8-3.6c2.4-0.8,4.9-1.2,7.4-1.4c1.3-0.1,2.6-0.2,4.4-0.2
		c3.8,0,7.9,2.2,11,5.8l0.2,0.2v-0.2c0-0.1,0-0.2,0.1-0.3c0-0.1,0.1-0.2,0.1-0.4l0,0l0,0C101.2,10,96.9,7.8,93,7.8
		c-1.5,0-3,0.1-4.6,0.2c-2.7,0.2-5.4,0.8-7.9,1.6c-1.6-1.1-3.3-1.9-5.1-2.4h9.8c0.9,0,1.9,0,2.8,0c7.3,0.2,13.4,1.5,17.6,3.6h0.1
		l0.5-0.7l-0.1-0.1C101.6,8,95.3,6.7,87.8,6.5c-0.8,0-1.7,0-2.5,0H70.5c-0.8,0-1.7-0.1-2.7-0.1H50.2v29.3h10.4V24.5
		c0.4,2,1.5,3.9,3,5.3c2.1,2,4.9,3.1,7.8,3.1c3.7,0.1,7.2-1.3,9.9-3.7v2c0,2.3-0.6,3.5-4.1,3.5h-3.3l0.1,1.4l21.3-0.1v-1.4h-6.9
		c-1.6,0-2.4-1-2.4-2.8c0-1.5-0.1-3.7-0.2-6.2c-0.1-2.2-0.2-4.4-0.2-5.9c0-2.4,1.2-3.7,3.5-3.9c0.1,12,3.9,17.2,12.6,17.2
		c4.5-0.2,8.5-2.7,10.6-6.7v-0.1l0,0C112.1,25.9,111.9,25.8,111.7,25.8z M72,16.9h0.2c0.2,0,0.4,0.1,0.6,0.2l0.4,0.1
		c1,0.2,1.7,1.1,1.7,2.2c0,0.8-0.3,1.5-0.8,2.1c-1.2,1-2.7,1.5-4.2,1.4c-2.4,0-4.7-0.9-6.5-2.3c-1.4-0.9-2.4-2.3-2.8-3.8H69
		c0.9,0,1.8,0,2.7,0.2h0.2L72,16.9z"/>
</g>
<path class="st1" d="M113.7,26.3c-5.4-0.2-9.6-4.7-9.4-10c0.2-5.1,4.3-9.2,9.4-9.4l0,0c5.4,0.2,9.6,4.7,9.4,10
	C122.9,22,118.8,26.2,113.7,26.3z M113.7,7.8L113.7,7.8c-4.9,0-8.9,4-8.8,8.9c0,4.9,4,8.9,8.9,8.8c4.9,0,8.9-4,8.8-8.9c0,0,0,0,0,0
	l0,0C122.6,11.7,118.6,7.8,113.7,7.8C113.7,7.8,113.7,7.8,113.7,7.8z"/>
</svg>
